<?xml version="1.0" standalone="no"?>
<!DOCTYPE svg PUBLIC "-//W3C//DTD SVG 20010904//EN"
 "http://www.w3.org/TR/2001/REC-SVG-20010904/DTD/svg10.dtd">
<svg version="1.0" xmlns="http://www.w3.org/2000/svg"
 width="1878.000000pt" height="1878.000000pt" viewBox="0 0 1878.000000 1878.000000"
 preserveAspectRatio="xMidYMid meet">
<metadata>
Created by potrace 1.14, written by Peter Selinger 2001-2017
</metadata>
<g transform="translate(0.000000,1878.000000) scale(0.100000,-0.100000)"
fill="#000000" stroke="none">
<path d="M9225 18703 c-71 -42 -142 -82 -157 -90 -15 -8 -30 -18 -33 -24 -4
-5 -15 -9 -26 -9 -10 0 -19 -4 -19 -8 0 -5 -12 -15 -27 -23 -27 -13 -324 -183
-446 -255 -32 -19 -62 -34 -67 -34 -5 0 -10 -3 -12 -7 -1 -5 -20 -17 -40 -28
-21 -11 -180 -103 -355 -204 -175 -101 -365 -211 -423 -244 -58 -33 -117 -67
-132 -76 -15 -9 -120 -70 -234 -136 -115 -66 -228 -132 -253 -147 -26 -14 -62
-35 -81 -45 -32 -18 -908 -524 -975 -564 -16 -10 -41 -24 -55 -32 -50 -28
-109 -61 -300 -172 -393 -227 -956 -552 -1000 -577 -53 -30 -62 -35 -300 -173
-102 -60 -198 -115 -215 -124 -16 -9 -61 -35 -100 -58 -55 -33 -521 -302 -682
-394 -69 -40 -105 -60 -328 -189 -301 -174 -595 -344 -670 -388 -33 -19 -80
-46 -105 -60 -25 -14 -128 -73 -230 -132 -253 -147 -553 -320 -623 -359 -33
-19 -67 -48 -78 -65 -19 -30 -19 -126 -19 -4696 0 -4515 1 -4666 19 -4695 12
-21 67 -58 182 -124 90 -52 185 -107 211 -123 l48 -30 -8 -81 c-9 -105 -8
-369 1 -470 4 -43 19 -135 33 -205 153 -754 700 -1375 1434 -1626 100 -34 252
-71 375 -93 90 -15 221 -17 1299 -20 l1199 -4 271 -156 c149 -86 280 -161 291
-167 11 -6 52 -30 90 -53 55 -32 732 -423 886 -511 59 -34 150 -86 274 -159
66 -38 127 -73 135 -76 8 -4 29 -15 45 -26 17 -10 102 -60 190 -111 158 -91
191 -111 260 -150 80 -45 105 -60 220 -127 66 -39 140 -81 165 -95 25 -14 144
-83 265 -154 194 -113 225 -128 265 -128 39 0 71 15 250 118 113 66 219 127
235 137 17 10 48 28 70 40 22 12 72 40 110 64 39 23 77 45 85 48 8 4 29 16 45
27 17 11 48 29 70 41 22 12 195 112 385 222 190 110 365 211 390 225 25 14
142 81 260 150 118 69 235 136 260 150 25 13 50 28 55 32 6 4 30 19 55 32 25
14 90 51 145 83 55 32 120 69 145 83 25 14 74 42 109 64 34 21 65 38 67 38 3
0 21 11 42 24 20 13 159 94 308 180 l272 156 1163 1 c640 0 1193 5 1229 9 36
5 83 11 105 13 94 12 259 51 381 92 319 107 594 276 829 510 135 134 164 166
241 275 157 220 247 405 334 685 12 41 40 162 46 205 3 19 7 42 9 50 4 13 9
52 21 165 4 40 4 321 0 365 -2 19 -7 58 -10 85 l-7 50 52 30 c28 17 63 37 78
45 114 64 167 95 171 99 3 3 28 18 55 33 28 14 59 38 70 53 20 26 20 44 23
4695 1 3020 -1 4678 -8 4694 -5 14 -33 41 -62 60 -40 25 -1013 588 -1205 698
-55 30 -91 51 -272 157 -95 55 -175 101 -177 101 -1 0 -39 23 -84 50 -45 28
-83 50 -85 50 -5 0 -149 83 -175 100 -8 6 -22 13 -30 17 -8 4 -46 26 -85 48
-66 39 -445 258 -510 295 -16 9 -131 76 -255 147 -124 72 -241 139 -260 150
-38 22 -140 81 -395 228 -88 51 -176 102 -195 113 -19 10 -118 68 -220 127
-102 59 -203 117 -225 130 -22 12 -80 46 -130 75 -49 29 -110 64 -135 78 -25
14 -74 42 -109 64 -34 21 -65 38 -68 38 -2 0 -46 24 -96 54 -186 109 -883 512
-952 550 -11 6 -51 30 -90 53 -78 46 -829 479 -891 513 -21 12 -43 26 -49 30
-5 4 -30 19 -55 32 -51 28 -46 26 -310 178 -107 62 -220 127 -250 145 -30 18
-75 44 -100 58 -25 13 -74 41 -110 62 -36 21 -81 46 -100 57 -19 11 -39 24
-45 28 -5 4 -35 21 -65 37 -30 17 -111 64 -180 104 -169 98 -169 98 -335 2z"/>
</g>
</svg>
